<svg width="47" height="47" viewBox="0 0 47 47" fill="none" xmlns="http://www.w3.org/2000/svg">
<path d="M23.5 6.854C13.7622 6.854 5.875 14.4914 5.875 23.9209C5.875 31.472 10.9189 37.8501 17.9234 40.1122L17.929 40.1136C18.808 40.2612 19.1378 39.7499 19.1378 39.3024C19.1378 38.9015 19.1163 37.5822 19.1158 36.1705C19.1158 36.1462 19.0927 36.1278 19.0687 36.1321C14.6794 36.8999 13.5406 35.075 13.1894 34.1183C12.9911 33.6278 12.1319 32.113 11.3828 31.7076C10.7659 31.3876 9.88469 30.5982 11.3608 30.5769C12.7488 30.5557 13.7402 31.8143 14.0706 32.3262C15.6469 34.8915 18.1586 34.1914 19.1846 33.7429C19.197 33.7374 19.2051 33.7261 19.207 33.7125C19.357 32.6654 19.7827 31.944 20.2586 31.5118C20.2842 31.4887 20.2709 31.4454 20.2366 31.4415C16.3429 31.002 12.3081 29.5025 12.3081 23.0249C12.3081 21.1784 12.9841 19.6486 14.0974 18.4566C14.1079 18.4454 14.1113 18.4299 14.1055 18.4157C13.9187 17.954 13.3407 16.2316 14.2838 13.9328C14.2882 13.9219 14.2974 13.9135 14.3088 13.9108C14.4851 13.8694 15.9756 13.6073 19.1228 15.655C19.1321 15.6611 19.144 15.6631 19.1548 15.6602C20.5598 15.2792 22.052 15.0888 23.5441 15.0888C25.0361 15.0888 26.5282 15.2792 27.9333 15.6601C27.944 15.6631 27.956 15.661 27.9654 15.6548C31.1142 13.5863 32.6047 13.8672 32.7796 13.9107C32.7909 13.9134 32.7999 13.9218 32.8042 13.9325C33.7476 16.2315 33.1695 17.954 32.9826 18.4157C32.9768 18.4299 32.9803 18.4454 32.9907 18.4566C34.104 19.6484 34.78 21.1571 34.78 23.0249C34.78 29.5235 30.7239 31.002 26.83 31.4415C26.7957 31.4454 26.7824 31.4889 26.808 31.512C27.4169 32.0605 27.9282 33.0673 27.9282 34.6091C27.9282 36.8917 27.9063 38.7265 27.9063 39.3024C27.9063 39.7505 28.2368 40.2837 29.1181 40.1132C32.6168 38.9693 35.6573 36.7918 37.8113 33.887C39.9651 30.9824 41.124 27.4968 41.125 23.9209C41.125 14.4914 33.2378 6.854 23.5 6.854Z" stroke="white" stroke-width="1.25" stroke-linecap="round"/>
</svg>
