<svg width="47" height="47" viewBox="0 0 47 47" fill="none" xmlns="http://www.w3.org/2000/svg">
<path d="M8.28853 21.3474C17.7489 16.9394 24.0468 14.0104 27.2093 12.5894C36.2102 8.55849 38.1023 7.8625 39.3186 7.8335C39.5889 7.8335 40.1836 7.8915 40.589 8.2395C40.9133 8.52949 40.9946 8.90649 41.0486 9.19648C41.1027 9.48647 41.1567 10.0955 41.1027 10.5595C40.616 16.0694 38.5077 29.4382 37.4265 35.586C36.9671 38.1961 36.0751 39.066 35.2101 39.1531C33.3181 39.327 31.8854 37.8191 30.0745 36.5431C27.2093 34.542 25.6146 33.2952 22.8305 31.3231C19.6139 29.0612 21.6952 27.8142 23.5333 25.7842C24.0197 25.2623 32.318 17.1424 32.4801 16.4174C32.5072 16.3304 32.5072 15.9824 32.318 15.8084C32.1288 15.6344 31.8584 15.6924 31.6422 15.7504C31.3449 15.8084 26.8039 19.0563 17.9652 25.4652C16.6677 26.4222 15.5055 26.8863 14.4513 26.8571C13.289 26.8282 11.0726 26.1611 9.39675 25.5813C7.3695 24.8853 5.74773 24.5083 5.88288 23.2902C5.96397 22.6522 6.77486 22.0144 8.28853 21.3474Z" stroke="white" stroke-width="1.25" stroke-linecap="round"/>
</svg>
