<svg width="47" height="47" viewBox="0 0 47 47" fill="none" xmlns="http://www.w3.org/2000/svg">
<path d="M35.7157 11.9019C33.4689 10.9251 31.0596 10.2054 28.5405 9.79323C28.4947 9.78528 28.4489 9.80516 28.4252 9.84493C28.3473 9.97643 28.2672 10.118 28.1871 10.2648C27.7692 11.0307 26.9377 11.4925 26.0687 11.4134C24.3534 11.2575 22.6458 11.2562 20.9528 11.4097C20.0758 11.4892 19.2316 11.0226 18.8019 10.2542C18.7221 10.1115 18.6426 9.97373 18.5658 9.84493C18.5422 9.80649 18.4964 9.78661 18.4505 9.79323C15.9329 10.2041 13.5236 10.9238 11.2755 11.9019C11.256 11.9098 11.2394 11.9231 11.2283 11.9403C6.65841 18.4093 5.40654 24.7193 6.02067 30.9511C6.02343 30.9817 6.04151 31.0108 6.06652 31.0292C9.08159 33.1272 12.0022 34.4009 14.8686 35.2451C14.9144 35.2585 14.963 35.2426 14.9922 35.2068C15.6703 34.3294 16.2747 33.4043 16.7929 32.4314C16.8235 32.3746 16.7943 32.3069 16.7318 32.2843C15.7731 31.9399 14.8602 31.5196 13.9821 31.0426C13.9126 31.0042 13.9071 30.91 13.971 30.8649C14.1558 30.7337 14.3406 30.5972 14.5171 30.4594C14.549 30.4341 14.5935 30.4288 14.631 30.4449C20.4 32.9404 26.6455 32.9404 32.3462 30.4449C32.3838 30.4276 32.4282 30.4329 32.4615 30.458C32.638 30.5959 32.8228 30.7337 33.0091 30.8649C33.0729 30.91 33.0688 31.0042 32.9993 31.0426C32.1212 31.529 31.2082 31.9399 30.2482 32.2832C30.1857 32.3057 30.1579 32.3746 30.1885 32.4314C30.7178 33.4029 31.3222 34.3281 31.9878 35.2054C32.0156 35.2426 32.0656 35.2585 32.1114 35.2451C34.9917 34.4009 37.9123 33.1272 40.9274 31.0292C40.9538 31.0108 40.9705 30.9828 40.9732 30.9525C41.7082 23.7478 39.7422 17.4895 35.7615 11.9416C35.7517 11.9231 35.7351 11.9098 35.7157 11.9019ZM17.6544 27.1566C15.9176 27.1566 14.4865 25.6458 14.4865 23.7903C14.4865 21.9347 15.8898 20.4239 17.6544 20.4239C19.4328 20.4239 20.8502 21.9481 20.8224 23.7903C20.8224 25.6458 19.4189 27.1566 17.6544 27.1566ZM29.3674 27.1566C27.6305 27.1566 26.1994 25.6458 26.1994 23.7903C26.1994 21.9347 27.6027 20.4239 29.3674 20.4239C31.1457 20.4239 32.563 21.9481 32.5352 23.7903C32.5352 25.6458 31.1457 27.1566 29.3674 27.1566Z" stroke="white" stroke-width="1.25" stroke-linecap="round"/>
</svg>
